<svg width="2640" height="837" viewBox="0 0 2640 837" fill="none" xmlns="http://www.w3.org/2000/svg">
<rect width="2640" height="837" rx="40" fill="url(#paint0_linear_2361_11659)"/>
<path fill-rule="evenodd" clip-rule="evenodd" d="M2178.7 211C2126.08 211 2034 274 2034 352.768V463.764C2034 516.084 2126.08 573 2178.7 573H2369.25C2421.87 573 2456 539.062 2456 486.742V297.258C2456 244.938 2421.87 211 2369.25 211H2178.7Z" fill="url(#paint1_linear_2361_11659)"/>
<path d="M285 516C258.333 516 237 506.8 221 488.4C205 469.733 197 442 197 405.2C197 368.4 205 340.667 221 322C237.267 303.067 258.733 293.6 285.4 293.6C296.6 293.6 306.333 295.067 314.6 298C322.867 300.667 330.067 304.4 336.2 309.2C342.333 314 347.533 319.333 351.8 325.2H354.2C353.933 321.733 353.4 316.667 352.6 310C352.067 303.067 351.8 297.6 351.8 293.6V208H387V512H358.6L353.4 483.2H351.8C347.533 489.333 342.333 494.933 336.2 500C330.067 504.8 322.733 508.667 314.2 511.6C305.933 514.533 296.2 516 285 516ZM290.6 486.8C313.267 486.8 329.133 480.667 338.2 468.4C347.533 455.867 352.2 437.067 352.2 412V405.6C352.2 378.933 347.8 358.533 339 344.4C330.2 330 313.933 322.8 290.2 322.8C271.267 322.8 257 330.4 247.4 345.6C238.067 360.533 233.4 380.667 233.4 406C233.4 431.6 238.067 451.467 247.4 465.6C257 479.733 271.4 486.8 290.6 486.8ZM641.494 404.4C641.494 422.267 639.094 438.133 634.294 452C629.76 465.6 623.094 477.2 614.294 486.8C605.76 496.4 595.227 503.733 582.694 508.8C570.427 513.6 556.694 516 541.494 516C527.36 516 514.294 513.6 502.294 508.8C490.294 503.733 479.894 496.4 471.094 486.8C462.294 477.2 455.36 465.6 450.294 452C445.494 438.133 443.094 422.267 443.094 404.4C443.094 380.667 447.094 360.667 455.094 344.4C463.094 327.867 474.56 315.333 489.494 306.8C504.427 298 522.16 293.6 542.694 293.6C562.16 293.6 579.227 298 593.894 306.8C608.827 315.333 620.427 327.867 628.694 344.4C637.227 360.667 641.494 380.667 641.494 404.4ZM479.494 404.4C479.494 421.2 481.627 435.867 485.894 448.4C490.427 460.667 497.36 470.133 506.694 476.8C516.027 483.467 527.894 486.8 542.294 486.8C556.694 486.8 568.56 483.467 577.894 476.8C587.227 470.133 594.027 460.667 598.294 448.4C602.827 435.867 605.094 421.2 605.094 404.4C605.094 387.333 602.827 372.8 598.294 360.8C593.76 348.8 586.827 339.6 577.494 333.2C568.427 326.533 556.56 323.2 541.894 323.2C520.027 323.2 504.16 330.4 494.294 344.8C484.427 359.2 479.494 379.067 479.494 404.4ZM783.281 516C764.348 516 747.415 512.133 732.481 504.4C717.815 496.667 706.215 484.667 697.681 468.4C689.415 452.133 685.281 431.333 685.281 406C685.281 379.6 689.681 358.133 698.481 341.6C707.281 325.067 719.148 312.933 734.081 305.2C749.281 297.467 766.481 293.6 785.681 293.6C796.615 293.6 807.148 294.8 817.281 297.2C827.415 299.333 835.681 302 842.081 305.2L831.281 334.4C824.881 332 817.415 329.733 808.881 327.6C800.348 325.467 792.348 324.4 784.881 324.4C770.481 324.4 758.615 327.467 749.281 333.6C739.948 339.733 733.015 348.8 728.481 360.8C723.948 372.8 721.681 387.733 721.681 405.6C721.681 422.667 723.948 437.2 728.481 449.2C733.015 461.2 739.815 470.267 748.881 476.4C757.948 482.533 769.281 485.6 782.881 485.6C794.615 485.6 804.881 484.4 813.681 482C822.748 479.6 831.015 476.667 838.481 473.2V504.4C831.281 508.133 823.281 510.933 814.481 512.8C805.948 514.933 795.548 516 783.281 516ZM992.669 293.6C1018.27 293.6 1037.6 299.867 1050.67 312.4C1063.74 324.667 1070.27 344.667 1070.27 372.4V512H1035.47V374.8C1035.47 357.467 1031.6 344.533 1023.87 336C1016.14 327.467 1004 323.2 987.469 323.2C963.735 323.2 947.335 329.867 938.269 343.2C929.202 356.533 924.669 375.733 924.669 400.8V512H889.469V297.6H917.869L923.069 326.8H925.069C929.869 319.333 935.735 313.2 942.669 308.4C949.869 303.333 957.735 299.6 966.269 297.2C974.802 294.8 983.602 293.6 992.669 293.6ZM1219.53 293.6C1237.93 293.6 1253.67 297.6 1266.73 305.6C1280.07 313.6 1290.2 324.933 1297.13 339.6C1304.33 354 1307.93 370.933 1307.93 390.4V411.6H1161.13C1161.67 435.867 1167.8 454.4 1179.53 467.2C1191.53 479.733 1208.2 486 1229.53 486C1243.13 486 1255.13 484.8 1265.53 482.4C1276.2 479.733 1287.13 476 1298.33 471.2V502C1287.4 506.8 1276.6 510.267 1265.93 512.4C1255.27 514.8 1242.6 516 1227.93 516C1207.67 516 1189.67 511.867 1173.93 503.6C1158.47 495.333 1146.33 483.067 1137.53 466.8C1129 450.267 1124.73 430.133 1124.73 406.4C1124.73 382.933 1128.6 362.8 1136.33 346C1144.33 329.2 1155.4 316.267 1169.53 307.2C1183.93 298.133 1200.6 293.6 1219.53 293.6ZM1219.13 322.4C1202.33 322.4 1189 327.867 1179.13 338.8C1169.53 349.467 1163.8 364.4 1161.93 383.6H1271.13C1271.13 371.333 1269.27 360.667 1265.53 351.6C1261.8 342.533 1256.07 335.467 1248.33 330.4C1240.87 325.067 1231.13 322.4 1219.13 322.4ZM1405.5 402.4L1331.5 297.6H1371.5L1426.7 378.4L1481.5 297.6H1521.1L1447.1 402.4L1525.1 512H1485.1L1426.7 426.4L1367.5 512H1327.9L1405.5 402.4ZM1745.62 297.6V512H1716.82L1711.62 483.6H1710.02C1705.49 491.067 1699.62 497.2 1692.42 502C1685.22 506.8 1677.36 510.267 1668.82 512.4C1660.29 514.8 1651.36 516 1642.02 516C1624.96 516 1610.56 513.333 1598.82 508C1587.36 502.4 1578.69 493.867 1572.82 482.4C1566.96 470.933 1564.02 456.133 1564.02 438V297.6H1599.62V435.6C1599.62 452.667 1603.49 465.467 1611.22 474C1618.96 482.533 1630.96 486.8 1647.22 486.8C1663.22 486.8 1675.76 483.867 1684.82 478C1694.16 471.867 1700.69 463.067 1704.42 451.6C1708.42 439.867 1710.42 425.733 1710.42 409.2V297.6H1745.62ZM1953.29 452.8C1953.29 466.667 1949.82 478.267 1942.89 487.6C1935.95 496.933 1926.09 504 1913.29 508.8C1900.49 513.6 1885.29 516 1867.69 516C1852.75 516 1839.82 514.8 1828.89 512.4C1818.22 510 1808.75 506.667 1800.49 502.4V470.4C1809.02 474.667 1819.29 478.667 1831.29 482.4C1843.55 485.867 1855.95 487.6 1868.49 487.6C1886.35 487.6 1899.29 484.8 1907.29 479.2C1915.29 473.333 1919.29 465.6 1919.29 456C1919.29 450.667 1917.82 445.867 1914.89 441.6C1911.95 437.333 1906.62 433.067 1898.89 428.8C1891.42 424.533 1880.62 419.733 1866.49 414.4C1852.62 409.067 1840.75 403.733 1830.89 398.4C1821.02 393.067 1813.42 386.667 1808.09 379.2C1802.75 371.733 1800.09 362.133 1800.09 350.4C1800.09 332.267 1807.42 318.267 1822.09 308.4C1837.02 298.533 1856.49 293.6 1880.49 293.6C1893.55 293.6 1905.69 294.933 1916.89 297.6C1928.35 300 1939.02 303.467 1948.89 308L1936.89 336C1931.02 333.333 1924.75 331.067 1918.09 329.2C1911.69 327.067 1905.15 325.467 1898.49 324.4C1891.82 323.067 1885.02 322.4 1878.09 322.4C1863.69 322.4 1852.62 324.8 1844.89 329.6C1837.42 334.133 1833.69 340.4 1833.69 348.4C1833.69 354.267 1835.42 359.333 1838.89 363.6C1842.35 367.6 1848.09 371.6 1856.09 375.6C1864.35 379.333 1875.29 383.867 1888.89 389.2C1902.49 394.267 1914.09 399.467 1923.69 404.8C1933.29 410.133 1940.62 416.667 1945.69 424.4C1950.75 431.867 1953.29 441.333 1953.29 452.8Z" fill="white"/>
<path d="M221 488.4L217.204 491.654L217.215 491.667L217.227 491.681L221 488.4ZM221 322L217.207 318.742L217.204 318.746L221 322ZM314.6 298L312.928 302.712L312.996 302.736L313.065 302.759L314.6 298ZM336.2 309.2L339.282 305.262L336.2 309.2ZM351.8 325.2L347.756 328.141L349.254 330.2H351.8V325.2ZM354.2 325.2V330.2H359.599L359.185 324.817L354.2 325.2ZM352.6 310L347.615 310.383L347.623 310.49L347.636 310.596L352.6 310ZM351.8 208V203H346.8V208H351.8ZM387 208H392V203H387V208ZM387 512V517H392V512H387ZM358.6 512L353.68 512.888L354.422 517H358.6V512ZM353.4 483.2L358.32 482.312L357.578 478.2H353.4V483.2ZM351.8 483.2V478.2H349.187L347.695 480.345L351.8 483.2ZM336.2 500L339.282 503.938L339.334 503.897L339.384 503.855L336.2 500ZM314.2 511.6L312.575 506.872L312.551 506.88L312.528 506.888L314.2 511.6ZM338.2 468.4L334.19 465.414L334.184 465.421L334.179 465.428L338.2 468.4ZM339 344.4L334.734 347.007L334.744 347.025L334.756 347.043L339 344.4ZM247.4 345.6L243.173 342.93L243.166 342.94L243.16 342.95L247.4 345.6ZM247.4 465.6L243.228 468.355L243.246 468.382L243.264 468.409L247.4 465.6ZM285 511C259.628 511 239.728 502.317 224.773 485.119L217.227 491.681C234.272 511.283 257.039 521 285 521V511ZM224.796 485.146C209.879 467.742 202 441.38 202 405.2H192C192 442.62 200.121 471.724 217.204 491.654L224.796 485.146ZM202 405.2C202 369.02 209.879 342.658 224.796 325.254L217.204 318.746C200.121 338.676 192 367.78 192 405.2H202ZM224.793 325.258C240.038 307.514 260.078 298.6 285.4 298.6V288.6C257.389 288.6 234.495 298.62 217.207 318.742L224.793 325.258ZM285.4 298.6C296.181 298.6 305.323 300.014 312.928 302.712L316.272 293.288C307.343 290.12 297.02 288.6 285.4 288.6V298.6ZM313.065 302.759C320.836 305.265 327.499 308.739 333.118 313.138L339.282 305.262C332.635 300.061 324.897 296.068 316.135 293.241L313.065 302.759ZM333.118 313.138C338.913 317.673 343.782 322.676 347.756 328.141L355.844 322.259C351.285 315.991 345.753 310.327 339.282 305.262L333.118 313.138ZM351.8 330.2H354.2V320.2H351.8V330.2ZM359.185 324.817C358.91 321.241 358.367 316.09 357.564 309.404L347.636 310.596C348.433 317.244 348.956 322.226 349.215 325.583L359.185 324.817ZM357.585 309.617C357.056 302.733 356.8 297.412 356.8 293.6H346.8C346.8 297.788 347.078 303.401 347.615 310.383L357.585 309.617ZM356.8 293.6V208H346.8V293.6H356.8ZM351.8 213H387V203H351.8V213ZM382 208V512H392V208H382ZM387 507H358.6V517H387V507ZM363.52 511.112L358.32 482.312L348.48 484.088L353.68 512.888L363.52 511.112ZM353.4 478.2H351.8V488.2H353.4V478.2ZM347.695 480.345C343.705 486.081 338.821 491.35 333.016 496.145L339.384 503.855C345.846 498.517 351.362 492.586 355.905 486.055L347.695 480.345ZM333.118 496.062C327.486 500.47 320.664 504.091 312.575 506.872L315.825 516.328C324.803 513.242 332.647 509.13 339.282 503.938L333.118 496.062ZM312.528 506.888C304.923 509.586 295.781 511 285 511V521C296.62 521 306.943 519.48 315.872 516.312L312.528 506.888ZM290.6 491.8C314.049 491.8 331.818 485.446 342.221 471.372L334.179 465.428C326.448 475.887 312.485 481.8 290.6 481.8V491.8ZM342.21 471.386C352.471 457.608 357.2 437.542 357.2 412H347.2C347.2 436.591 342.596 454.125 334.19 465.414L342.21 471.386ZM357.2 412V405.6H347.2V412H357.2ZM357.2 405.6C357.2 378.509 352.752 357.027 343.244 341.757L334.756 347.043C342.848 360.04 347.2 379.357 347.2 405.6H357.2ZM343.266 341.793C333.214 325.343 314.894 317.8 290.2 317.8V327.8C312.973 327.8 327.186 334.657 334.734 347.007L343.266 341.793ZM290.2 317.8C269.661 317.8 253.746 326.189 243.173 342.93L251.627 348.27C260.254 334.611 272.872 327.8 290.2 327.8V317.8ZM243.16 342.95C233.158 358.954 228.4 380.119 228.4 406H238.4C238.4 381.214 242.976 362.113 251.64 348.25L243.16 342.95ZM228.4 406C228.4 432.111 233.144 453.086 243.228 468.355L251.572 462.845C242.989 449.847 238.4 431.089 238.4 406H228.4ZM243.264 468.409C253.922 484.1 269.983 491.8 290.6 491.8V481.8C272.817 481.8 260.078 475.367 251.536 462.791L243.264 468.409ZM634.294 452L629.569 450.364L629.559 450.392L629.55 450.419L634.294 452ZM614.294 486.8L610.608 483.421L610.582 483.45L610.557 483.478L614.294 486.8ZM582.694 508.8L584.516 513.456L584.542 513.446L584.568 513.436L582.694 508.8ZM502.294 508.8L500.349 513.406L500.393 513.425L500.437 513.442L502.294 508.8ZM471.094 486.8L467.408 490.179L467.408 490.179L471.094 486.8ZM450.294 452L445.569 453.636L445.588 453.691L445.608 453.746L450.294 452ZM455.094 344.4L459.581 346.607L459.588 346.592L459.595 346.578L455.094 344.4ZM489.494 306.8L491.974 311.141L492.003 311.125L492.032 311.108L489.494 306.8ZM593.894 306.8L591.321 311.087L591.367 311.115L591.413 311.141L593.894 306.8ZM628.694 344.4L624.222 346.636L624.243 346.68L624.266 346.723L628.694 344.4ZM485.894 448.4L481.161 450.011L481.181 450.073L481.204 450.133L485.894 448.4ZM506.694 476.8L509.6 472.731L509.6 472.731L506.694 476.8ZM577.894 476.8L574.988 472.731L574.988 472.731L577.894 476.8ZM598.294 448.4L593.592 446.699L593.581 446.728L593.571 446.757L598.294 448.4ZM598.294 360.8L602.971 359.033L602.971 359.033L598.294 360.8ZM577.494 333.2L574.532 337.228L574.598 337.277L574.666 337.324L577.494 333.2ZM494.294 344.8L498.418 347.626L498.418 347.626L494.294 344.8ZM636.494 404.4C636.494 421.827 634.152 437.124 629.569 450.364L639.019 453.636C644.035 439.143 646.494 422.706 646.494 404.4H636.494ZM629.55 450.419C625.217 463.42 618.887 474.39 610.608 483.421L617.98 490.179C627.3 480.01 634.304 467.78 639.037 453.581L629.55 450.419ZM610.557 483.478C602.562 492.472 592.678 499.371 580.82 504.164L584.568 513.436C597.776 508.096 608.959 500.328 618.031 490.122L610.557 483.478ZM580.872 504.144C569.268 508.684 556.165 511 541.494 511V521C557.222 521 571.586 518.516 584.516 513.456L580.872 504.144ZM541.494 511C527.937 511 515.507 508.7 504.151 504.158L500.437 513.442C513.08 518.5 526.784 521 541.494 521V511ZM504.239 504.194C492.9 499.406 483.094 492.492 474.78 483.421L467.408 490.179C476.693 500.308 487.687 508.06 500.349 513.406L504.239 504.194ZM474.78 483.421C466.462 474.348 459.847 463.32 454.979 450.254L445.608 453.746C450.874 467.88 458.126 480.052 467.408 490.179L474.78 483.421ZM455.019 450.364C450.435 437.124 448.094 421.827 448.094 404.4H438.094C438.094 422.706 440.552 439.143 445.569 453.636L455.019 450.364ZM448.094 404.4C448.094 381.204 452.006 362.008 459.581 346.607L450.607 342.193C442.182 359.325 438.094 380.129 438.094 404.4H448.094ZM459.595 346.578C467.186 330.888 477.978 319.139 491.974 311.141L487.013 302.459C471.143 311.527 459.001 324.845 450.593 342.222L459.595 346.578ZM492.032 311.108C506.065 302.838 522.887 298.6 542.694 298.6V288.6C521.434 288.6 502.789 293.162 486.955 302.492L492.032 311.108ZM542.694 298.6C561.382 298.6 577.534 302.815 591.321 311.087L596.466 302.513C580.92 293.185 562.939 288.6 542.694 288.6V298.6ZM591.413 311.141C605.425 319.148 616.362 330.916 624.222 346.636L633.166 342.164C624.492 324.817 612.23 311.519 596.374 302.459L591.413 311.141ZM624.266 346.723C632.33 362.094 636.494 381.247 636.494 404.4H646.494C646.494 380.087 642.124 359.239 633.122 342.077L624.266 346.723ZM474.494 404.4C474.494 421.608 476.677 436.841 481.161 450.011L490.627 446.789C486.577 434.892 484.494 420.792 484.494 404.4H474.494ZM481.204 450.133C486.034 463.203 493.529 473.541 503.788 480.869L509.6 472.731C501.192 466.726 494.82 458.13 490.584 446.667L481.204 450.133ZM503.788 480.869C514.164 488.28 527.12 491.8 542.294 491.8V481.8C528.668 481.8 517.89 478.653 509.6 472.731L503.788 480.869ZM542.294 491.8C557.468 491.8 570.424 488.28 580.8 480.869L574.988 472.731C566.697 478.653 555.92 481.8 542.294 481.8V491.8ZM580.8 480.869C591.084 473.523 598.456 463.152 603.016 450.043L593.571 446.757C589.598 458.181 583.37 466.744 574.988 472.731L580.8 480.869ZM602.996 450.101C607.77 436.901 610.094 421.635 610.094 404.4H600.094C600.094 420.765 597.884 434.832 593.592 446.699L602.996 450.101ZM610.094 404.4C610.094 386.918 607.775 371.75 602.971 359.033L593.616 362.567C597.879 373.85 600.094 387.749 600.094 404.4H610.094ZM602.971 359.033C598.127 346.209 590.607 336.13 580.321 329.076L574.666 337.324C583.047 343.07 589.394 351.391 593.616 362.567L602.971 359.033ZM580.456 329.172C570.303 321.706 557.303 318.2 541.894 318.2V328.2C555.817 328.2 566.552 331.36 574.532 337.228L580.456 329.172ZM541.894 318.2C518.847 318.2 501.205 325.867 490.169 341.974L498.418 347.626C507.116 334.933 521.207 328.2 541.894 328.2V318.2ZM490.169 341.974C479.528 357.504 474.494 378.492 474.494 404.4H484.494C484.494 379.642 489.326 360.896 498.418 347.626L490.169 341.974ZM732.481 504.4L730.149 508.823L730.166 508.831L730.182 508.84L732.481 504.4ZM697.681 468.4L693.224 470.665L693.238 470.694L693.254 470.723L697.681 468.4ZM698.481 341.6L702.895 343.949L702.895 343.949L698.481 341.6ZM734.081 305.2L731.814 300.744L731.798 300.752L731.782 300.76L734.081 305.2ZM817.281 297.2L816.129 302.065L816.19 302.08L816.251 302.093L817.281 297.2ZM842.081 305.2L846.771 306.934L848.325 302.732L844.317 300.728L842.081 305.2ZM831.281 334.4L829.526 339.082L834.228 340.845L835.971 336.134L831.281 334.4ZM808.881 327.6L810.094 322.749L810.094 322.749L808.881 327.6ZM728.481 360.8L723.804 359.033L723.804 359.033L728.481 360.8ZM728.481 449.2L723.804 450.967L723.804 450.967L728.481 449.2ZM748.881 476.4L751.683 472.259L751.683 472.259L748.881 476.4ZM813.681 482L812.402 477.166L812.384 477.171L812.366 477.176L813.681 482ZM838.481 473.2H843.481V465.366L836.376 468.665L838.481 473.2ZM838.481 504.4L840.783 508.839L843.481 507.44V504.4H838.481ZM814.481 512.8L813.444 507.909L813.356 507.927L813.269 507.949L814.481 512.8ZM783.281 511C765.046 511 748.918 507.281 734.781 499.96L730.182 508.84C745.911 516.985 763.65 521 783.281 521V511ZM734.813 499.977C721.137 492.766 710.225 481.549 702.109 466.077L693.254 470.723C702.204 487.785 714.492 500.567 730.149 508.823L734.813 499.977ZM702.139 466.135C694.34 450.788 690.281 430.835 690.281 406H680.281C680.281 431.832 684.489 453.478 693.224 470.665L702.139 466.135ZM690.281 406C690.281 380.103 694.605 359.524 702.895 343.949L694.068 339.251C684.757 356.743 680.281 379.097 680.281 406H690.281ZM702.895 343.949C711.275 328.205 722.449 316.855 736.381 309.64L731.782 300.76C715.847 309.012 703.288 321.928 694.068 339.251L702.895 343.949ZM736.349 309.656C750.762 302.323 767.169 298.6 785.681 298.6V288.6C765.793 288.6 747.8 292.61 731.814 300.744L736.349 309.656ZM785.681 298.6C796.246 298.6 806.392 299.759 816.129 302.065L818.434 292.335C807.904 289.841 796.983 288.6 785.681 288.6V298.6ZM816.251 302.093C826.135 304.174 833.956 306.728 839.845 309.672L844.317 300.728C837.406 297.272 828.694 294.493 818.311 292.307L816.251 302.093ZM837.392 303.466L826.592 332.666L835.971 336.134L846.771 306.934L837.392 303.466ZM833.037 329.718C826.417 327.236 818.762 324.916 810.094 322.749L807.669 332.451C816.067 334.55 823.345 336.764 829.526 339.082L833.037 329.718ZM810.094 322.749C801.232 320.534 792.822 319.4 784.881 319.4V329.4C791.874 329.4 799.464 330.399 807.669 332.451L810.094 322.749ZM784.881 319.4C769.785 319.4 756.89 322.617 746.535 329.421L752.027 337.779C760.339 332.316 771.178 329.4 784.881 329.4V319.4ZM746.535 329.421C736.193 336.218 728.653 346.198 723.804 359.033L733.159 362.567C737.376 351.402 743.703 343.249 752.027 337.779L746.535 329.421ZM723.804 359.033C718.991 371.772 716.681 387.349 716.681 405.6H726.681C726.681 388.117 728.904 373.828 733.159 362.567L723.804 359.033ZM716.681 405.6C716.681 423.082 719 438.25 723.804 450.967L733.159 447.433C728.896 436.15 726.681 422.251 726.681 405.6H716.681ZM723.804 450.967C728.638 463.762 736.018 473.735 746.08 480.541L751.683 472.259C743.611 466.799 737.391 458.638 733.159 447.433L723.804 450.967ZM746.08 480.541C756.154 487.357 768.526 490.6 782.881 490.6V480.6C770.037 480.6 759.741 477.71 751.683 472.259L746.08 480.541ZM782.881 490.6C794.939 490.6 805.666 489.369 814.997 486.824L812.366 477.176C804.096 479.431 794.29 480.6 782.881 480.6V490.6ZM814.961 486.834C824.273 484.369 832.82 481.341 840.587 477.735L836.376 468.665C829.209 471.992 821.223 474.831 812.402 477.166L814.961 486.834ZM833.481 473.2V504.4H843.481V473.2H833.481ZM836.18 499.961C829.42 503.466 821.851 506.125 813.444 507.909L815.519 517.691C824.711 515.741 833.143 512.8 840.783 508.839L836.18 499.961ZM813.269 507.949C805.253 509.953 795.287 511 783.281 511V521C795.809 521 806.643 519.914 815.694 517.651L813.269 507.949ZM1050.67 312.4L1047.21 316.008L1047.23 316.027L1047.25 316.045L1050.67 312.4ZM1070.27 512V517H1075.27V512H1070.27ZM1035.47 512H1030.47V517H1035.47V512ZM1023.87 336L1027.57 332.642L1027.57 332.642L1023.87 336ZM938.269 343.2L942.403 346.012L942.403 346.012L938.269 343.2ZM924.669 512V517H929.669V512H924.669ZM889.469 512H884.469V517H889.469V512ZM889.469 297.6V292.6H884.469V297.6H889.469ZM917.869 297.6L922.791 296.723L922.057 292.6H917.869V297.6ZM923.069 326.8L918.146 327.677L918.881 331.8H923.069V326.8ZM925.069 326.8V331.8H927.799L929.275 329.504L925.069 326.8ZM942.669 308.4L945.515 312.511L945.531 312.5L945.546 312.489L942.669 308.4ZM992.669 298.6C1017.52 298.6 1035.4 304.681 1047.21 316.008L1054.13 308.792C1039.81 295.052 1019.02 288.6 992.669 288.6V298.6ZM1047.25 316.045C1058.87 326.956 1065.27 345.303 1065.27 372.4H1075.27C1075.27 344.031 1068.6 322.378 1054.09 308.755L1047.25 316.045ZM1065.27 372.4V512H1075.27V372.4H1065.27ZM1070.27 507H1035.47V517H1070.27V507ZM1040.47 512V374.8H1030.47V512H1040.47ZM1040.47 374.8C1040.47 356.835 1036.48 342.465 1027.57 332.642L1020.16 339.358C1026.73 346.602 1030.47 358.098 1030.47 374.8H1040.47ZM1027.57 332.642C1018.54 322.674 1004.79 318.2 987.469 318.2V328.2C1003.22 328.2 1013.73 332.259 1020.16 339.358L1027.57 332.642ZM987.469 318.2C962.91 318.2 944.518 325.119 934.134 340.388L942.403 346.012C950.153 334.615 964.56 328.2 987.469 328.2V318.2ZM934.134 340.388C924.27 354.894 919.669 375.246 919.669 400.8H929.669C929.669 376.221 934.134 358.173 942.403 346.012L934.134 340.388ZM919.669 400.8V512H929.669V400.8H919.669ZM924.669 507H889.469V517H924.669V507ZM894.469 512V297.6H884.469V512H894.469ZM889.469 302.6H917.869V292.6H889.469V302.6ZM912.946 298.477L918.146 327.677L927.991 325.923L922.791 296.723L912.946 298.477ZM923.069 331.8H925.069V321.8H923.069V331.8ZM929.275 329.504C933.738 322.562 939.151 316.917 945.515 312.511L939.823 304.289C932.32 309.483 926 316.105 920.863 324.096L929.275 329.504ZM945.546 312.489C952.28 307.751 959.631 304.261 967.622 302.013L964.915 292.387C955.84 294.939 947.458 298.916 939.791 304.311L945.546 312.489ZM967.622 302.013C975.705 299.74 984.049 298.6 992.669 298.6V288.6C983.155 288.6 973.899 289.86 964.915 292.387L967.622 302.013ZM1266.73 305.6L1264.12 309.864L1264.14 309.876L1264.16 309.887L1266.73 305.6ZM1297.13 339.6L1292.61 341.737L1292.64 341.787L1292.66 341.836L1297.13 339.6ZM1307.93 411.6V416.6H1312.93V411.6H1307.93ZM1161.13 411.6V406.6H1156.02L1156.14 411.71L1161.13 411.6ZM1179.53 467.2L1175.85 470.579L1175.89 470.619L1175.92 470.658L1179.53 467.2ZM1265.53 482.4L1266.66 487.272L1266.7 487.262L1266.75 487.251L1265.53 482.4ZM1298.33 471.2H1303.33V463.617L1296.36 466.604L1298.33 471.2ZM1298.33 502L1300.34 506.578L1303.33 505.266V502H1298.33ZM1265.93 512.4L1264.95 507.497L1264.9 507.509L1264.84 507.522L1265.93 512.4ZM1173.93 503.6L1171.58 508.01L1171.59 508.018L1171.61 508.026L1173.93 503.6ZM1137.53 466.8L1133.09 469.093L1133.11 469.136L1133.14 469.179L1137.53 466.8ZM1136.33 346L1131.82 343.85L1131.81 343.88L1131.79 343.909L1136.33 346ZM1169.53 307.2L1166.87 302.969L1166.85 302.98L1166.83 302.992L1169.53 307.2ZM1179.13 338.8L1175.42 335.45L1175.42 335.455L1179.13 338.8ZM1161.93 383.6L1156.96 383.116L1156.42 388.6H1161.93V383.6ZM1271.13 383.6V388.6H1276.13V383.6H1271.13ZM1265.53 351.6L1260.91 353.504L1260.91 353.504L1265.53 351.6ZM1248.33 330.4L1245.43 334.469L1245.51 334.527L1245.59 334.582L1248.33 330.4ZM1219.53 298.6C1237.2 298.6 1251.99 302.434 1264.12 309.864L1269.35 301.336C1255.35 292.766 1238.67 288.6 1219.53 288.6V298.6ZM1264.16 309.887C1276.61 317.356 1286.08 327.923 1292.61 341.737L1301.65 337.463C1294.32 321.944 1283.53 309.844 1269.31 301.313L1264.16 309.887ZM1292.66 341.836C1299.45 355.411 1302.93 371.549 1302.93 390.4H1312.93C1312.93 370.317 1309.22 352.589 1301.61 337.364L1292.66 341.836ZM1302.93 390.4V411.6H1312.93V390.4H1302.93ZM1307.93 406.6H1161.13V416.6H1307.93V406.6ZM1156.14 411.71C1156.69 436.709 1163.02 456.584 1175.85 470.579L1183.22 463.821C1172.58 452.216 1166.65 435.025 1166.13 411.49L1156.14 411.71ZM1175.92 470.658C1189.07 484.394 1207.17 491 1229.53 491V481C1209.23 481 1193.99 475.072 1183.15 463.742L1175.92 470.658ZM1229.53 491C1243.42 491 1255.81 489.777 1266.66 487.272L1264.41 477.528C1254.46 479.823 1242.85 481 1229.53 481V491ZM1266.75 487.251C1277.7 484.513 1288.88 480.69 1300.3 475.796L1296.36 466.604C1285.38 471.31 1274.7 474.954 1264.32 477.549L1266.75 487.251ZM1293.33 471.2V502H1303.33V471.2H1293.33ZM1296.32 497.422C1285.69 502.091 1275.23 505.441 1264.95 507.497L1266.91 517.303C1277.97 515.092 1289.11 511.509 1300.34 506.578L1296.32 497.422ZM1264.84 507.522C1254.63 509.819 1242.35 511 1227.93 511V521C1242.85 521 1255.91 519.781 1267.03 517.278L1264.84 507.522ZM1227.93 511C1208.36 511 1191.18 507.014 1176.26 499.174L1171.61 508.026C1188.15 516.72 1206.97 521 1227.93 521V511ZM1176.29 499.19C1161.74 491.412 1150.29 479.875 1141.93 464.421L1133.14 469.179C1142.38 486.259 1155.2 499.255 1171.58 508.01L1176.29 499.19ZM1141.98 464.507C1133.9 448.851 1129.73 429.549 1129.73 406.4H1119.73C1119.73 430.717 1124.11 451.682 1133.09 469.093L1141.98 464.507ZM1129.73 406.4C1129.73 383.467 1133.51 364.084 1140.88 348.091L1131.79 343.909C1123.69 361.516 1119.73 382.399 1119.73 406.4H1129.73ZM1140.85 348.15C1148.49 332.098 1158.97 319.918 1172.23 311.408L1166.83 302.992C1151.83 312.615 1140.18 326.302 1131.82 343.85L1140.85 348.15ZM1172.2 311.431C1185.71 302.922 1201.43 298.6 1219.53 298.6V288.6C1199.77 288.6 1182.16 293.344 1166.87 302.969L1172.2 311.431ZM1219.13 317.4C1201.14 317.4 1186.38 323.313 1175.42 335.45L1182.85 342.15C1191.63 332.42 1203.53 327.4 1219.13 327.4V317.4ZM1175.42 335.455C1164.89 347.15 1158.89 363.214 1156.96 383.116L1166.91 384.084C1168.71 365.586 1174.18 351.784 1182.85 342.145L1175.42 335.455ZM1161.93 388.6H1271.13V378.6H1161.93V388.6ZM1276.13 383.6C1276.13 370.838 1274.19 359.498 1270.16 349.696L1260.91 353.504C1264.34 361.836 1266.13 371.828 1266.13 383.6H1276.13ZM1270.16 349.696C1266.07 339.757 1259.7 331.871 1251.07 326.218L1245.59 334.582C1252.43 339.062 1257.54 345.309 1260.91 353.504L1270.16 349.696ZM1251.24 326.331C1242.7 320.23 1231.86 317.4 1219.13 317.4V327.4C1230.41 327.4 1239.04 329.903 1245.43 334.469L1251.24 326.331ZM1405.5 402.4L1409.58 405.289L1411.63 402.404L1409.59 399.516L1405.5 402.4ZM1331.5 297.6V292.6H1321.85L1327.42 300.484L1331.5 297.6ZM1371.5 297.6L1375.63 294.78L1374.14 292.6H1371.5V297.6ZM1426.7 378.4L1422.57 381.22L1426.72 387.286L1430.84 381.206L1426.7 378.4ZM1481.5 297.6V292.6H1478.85L1477.37 294.793L1481.5 297.6ZM1521.1 297.6L1525.19 300.484L1530.75 292.6H1521.1V297.6ZM1447.1 402.4L1443.02 399.516L1440.97 402.411L1443.03 405.299L1447.1 402.4ZM1525.1 512V517H1534.8L1529.18 509.101L1525.1 512ZM1485.1 512L1480.97 514.818L1482.46 517H1485.1V512ZM1426.7 426.4L1430.83 423.582L1426.73 417.569L1422.59 423.556L1426.7 426.4ZM1367.5 512V517H1370.12L1371.62 514.844L1367.5 512ZM1327.9 512L1323.82 509.111L1318.24 517H1327.9V512ZM1409.59 399.516L1335.59 294.716L1327.42 300.484L1401.42 405.284L1409.59 399.516ZM1331.5 302.6H1371.5V292.6H1331.5V302.6ZM1367.37 300.42L1422.57 381.22L1430.83 375.58L1375.63 294.78L1367.37 300.42ZM1430.84 381.206L1485.64 300.406L1477.37 294.793L1422.57 375.593L1430.84 381.206ZM1481.5 302.6H1521.1V292.6H1481.5V302.6ZM1517.02 294.716L1443.02 399.516L1451.19 405.284L1525.19 300.484L1517.02 294.716ZM1443.03 405.299L1521.03 514.899L1529.18 509.101L1451.18 399.501L1443.03 405.299ZM1525.1 507H1485.1V517H1525.1V507ZM1489.23 509.182L1430.83 423.582L1422.57 429.218L1480.97 514.818L1489.23 509.182ZM1422.59 423.556L1363.39 509.156L1371.62 514.844L1430.82 429.244L1422.59 423.556ZM1367.5 507H1327.9V517H1367.5V507ZM1331.98 514.889L1409.58 405.289L1401.42 399.511L1323.82 509.111L1331.98 514.889ZM1745.62 297.6H1750.62V292.6H1745.62V297.6ZM1745.62 512V517H1750.62V512H1745.62ZM1716.82 512L1711.9 512.901L1712.65 517H1716.82V512ZM1711.62 483.6L1716.54 482.699L1715.79 478.6H1711.62V483.6ZM1710.02 483.6V478.6H1707.21L1705.75 481.005L1710.02 483.6ZM1692.42 502L1689.65 497.84L1689.65 497.84L1692.42 502ZM1668.82 512.4L1667.61 507.549L1667.54 507.567L1667.47 507.587L1668.82 512.4ZM1598.82 508L1596.63 512.493L1596.69 512.523L1596.75 512.552L1598.82 508ZM1572.82 482.4L1568.37 484.677L1568.37 484.677L1572.82 482.4ZM1564.02 297.6V292.6H1559.02V297.6H1564.02ZM1599.62 297.6H1604.62V292.6H1599.62V297.6ZM1611.22 474L1614.93 470.642L1614.93 470.642L1611.22 474ZM1684.82 478L1687.54 482.198L1687.55 482.188L1687.57 482.179L1684.82 478ZM1704.42 451.6L1699.69 449.987L1699.68 450.019L1699.67 450.052L1704.42 451.6ZM1710.42 297.6V292.6H1705.42V297.6H1710.42ZM1740.62 297.6V512H1750.62V297.6H1740.62ZM1745.62 507H1716.82V517H1745.62V507ZM1721.74 511.099L1716.54 482.699L1706.7 484.501L1711.9 512.901L1721.74 511.099ZM1711.62 478.6H1710.02V488.6H1711.62V478.6ZM1705.75 481.005C1701.59 487.853 1696.23 493.449 1689.65 497.84L1695.2 506.16C1703.01 500.951 1709.39 494.281 1714.3 486.195L1705.75 481.005ZM1689.65 497.84C1682.93 502.317 1675.6 505.553 1667.61 507.549L1670.03 517.251C1679.11 514.981 1687.51 511.283 1695.2 506.16L1689.65 497.84ZM1667.47 507.587C1659.4 509.856 1650.92 511 1642.02 511V521C1651.79 521 1661.18 519.744 1670.18 517.213L1667.47 507.587ZM1642.02 511C1625.45 511 1611.8 508.407 1600.89 503.448L1596.75 512.552C1609.31 518.26 1624.46 521 1642.02 521V511ZM1601.02 503.507C1590.53 498.387 1582.65 490.636 1577.27 480.123L1568.37 484.677C1574.73 497.098 1584.18 506.413 1596.63 512.493L1601.02 503.507ZM1577.27 480.123C1571.88 469.589 1569.02 455.645 1569.02 438H1559.02C1559.02 456.622 1562.03 472.278 1568.37 484.677L1577.27 480.123ZM1569.02 438V297.6H1559.02V438H1569.02ZM1564.02 302.6H1599.62V292.6H1564.02V302.6ZM1594.62 297.6V435.6H1604.62V297.6H1594.62ZM1594.62 435.6C1594.62 453.322 1598.63 467.547 1607.52 477.358L1614.93 470.642C1608.35 463.386 1604.62 452.011 1604.62 435.6H1594.62ZM1607.52 477.358C1616.54 487.31 1630.14 491.8 1647.22 491.8V481.8C1631.77 481.8 1621.37 477.756 1614.93 470.642L1607.52 477.358ZM1647.22 491.8C1663.75 491.8 1677.36 488.783 1687.54 482.198L1682.11 473.802C1674.15 478.95 1662.69 481.8 1647.22 481.8V491.8ZM1687.57 482.179C1697.93 475.371 1705.12 465.602 1709.18 453.148L1699.67 450.052C1696.26 460.531 1690.38 468.363 1682.08 473.821L1687.57 482.179ZM1709.15 453.213C1713.38 440.82 1715.42 426.111 1715.42 409.2H1705.42C1705.42 425.356 1703.46 438.914 1699.69 449.987L1709.15 453.213ZM1715.42 409.2V297.6H1705.42V409.2H1715.42ZM1710.42 302.6H1745.62V292.6H1710.42V302.6ZM1942.89 487.6L1938.87 484.618L1938.87 484.618L1942.89 487.6ZM1913.29 508.8L1911.53 504.118L1913.29 508.8ZM1828.89 512.4L1827.79 517.278L1827.8 517.281L1827.82 517.284L1828.89 512.4ZM1800.49 502.4H1795.49V505.446L1798.19 506.843L1800.49 502.4ZM1800.49 470.4L1802.72 465.928L1795.49 462.31V470.4H1800.49ZM1831.29 482.4L1829.8 487.174L1829.86 487.194L1829.93 487.212L1831.29 482.4ZM1907.29 479.2L1910.15 483.296L1910.2 483.265L1910.24 483.232L1907.29 479.2ZM1914.89 441.6L1919.01 438.767L1919.01 438.767L1914.89 441.6ZM1898.89 428.8L1896.41 433.141L1896.44 433.16L1896.47 433.178L1898.89 428.8ZM1866.49 414.4L1864.69 419.067L1864.71 419.072L1864.72 419.078L1866.49 414.4ZM1808.09 379.2L1804.02 382.106L1804.02 382.106L1808.09 379.2ZM1822.09 308.4L1819.33 304.228L1819.31 304.24L1819.3 304.251L1822.09 308.4ZM1916.89 297.6L1915.73 302.464L1915.8 302.48L1915.86 302.494L1916.89 297.6ZM1948.89 308L1953.48 309.97L1955.4 305.491L1950.97 303.457L1948.89 308ZM1936.89 336L1934.82 340.552L1939.47 342.666L1941.48 337.97L1936.89 336ZM1918.09 329.2L1916.51 333.943L1916.62 333.982L1916.74 334.015L1918.09 329.2ZM1898.49 324.4L1897.51 329.303L1897.6 329.322L1897.7 329.337L1898.49 324.4ZM1844.89 329.6L1847.48 333.874L1847.5 333.861L1847.52 333.848L1844.89 329.6ZM1838.89 363.6L1835.01 366.753L1835.06 366.815L1835.11 366.875L1838.89 363.6ZM1856.09 375.6L1853.85 380.072L1853.94 380.116L1854.03 380.157L1856.09 375.6ZM1888.89 389.2L1887.06 393.855L1887.1 393.87L1887.14 393.885L1888.89 389.2ZM1923.69 404.8L1921.26 409.171L1921.26 409.171L1923.69 404.8ZM1945.69 424.4L1941.51 427.14L1941.53 427.174L1941.55 427.208L1945.69 424.4ZM1948.29 452.8C1948.29 465.806 1945.05 476.304 1938.87 484.618L1946.9 490.582C1954.59 480.23 1958.29 467.528 1958.29 452.8H1948.29ZM1938.87 484.618C1932.61 493.052 1923.59 499.596 1911.53 504.118L1915.04 513.482C1928.58 508.404 1939.3 500.814 1946.9 490.582L1938.87 484.618ZM1911.53 504.118C1899.43 508.657 1884.85 511 1867.69 511V521C1885.72 521 1901.55 518.543 1915.04 513.482L1911.53 504.118ZM1867.69 511C1853 511 1840.45 509.818 1829.96 507.516L1827.82 517.284C1839.2 519.782 1852.51 521 1867.69 521V511ZM1829.99 507.522C1819.66 505.2 1810.61 501.998 1802.78 497.957L1798.19 506.843C1806.9 511.336 1816.78 514.8 1827.79 517.278L1829.99 507.522ZM1805.49 502.4V470.4H1795.49V502.4H1805.49ZM1798.25 474.872C1807.09 479.291 1817.62 483.384 1829.8 487.174L1832.77 477.626C1820.95 473.949 1810.95 470.043 1802.72 465.928L1798.25 474.872ZM1829.93 487.212C1842.63 490.801 1855.49 492.6 1868.49 492.6V482.6C1856.42 482.6 1844.48 480.932 1832.65 477.588L1829.93 487.212ZM1868.49 492.6C1886.64 492.6 1900.86 489.799 1910.15 483.296L1904.42 475.104C1897.71 479.801 1886.07 482.6 1868.49 482.6V492.6ZM1910.24 483.232C1919.48 476.461 1924.29 467.254 1924.29 456H1914.29C1914.29 463.946 1911.1 470.206 1904.33 475.168L1910.24 483.232ZM1924.29 456C1924.29 449.688 1922.53 443.894 1919.01 438.767L1910.77 444.433C1913.11 447.84 1914.29 451.646 1914.29 456H1924.29ZM1919.01 438.767C1915.43 433.558 1909.3 428.834 1901.3 424.422L1896.47 433.178C1903.94 437.299 1908.48 441.109 1910.77 444.433L1919.01 438.767ZM1901.37 424.459C1893.56 419.999 1882.48 415.09 1868.25 409.722L1864.72 419.078C1878.76 424.377 1889.28 429.068 1896.41 433.141L1901.37 424.459ZM1868.28 409.733C1854.56 404.454 1842.89 399.206 1833.27 394.001L1828.51 402.799C1838.61 408.26 1850.69 413.68 1864.69 419.067L1868.28 409.733ZM1833.27 394.001C1823.92 388.951 1816.96 383.018 1812.16 376.294L1804.02 382.106C1809.88 390.315 1818.12 397.182 1828.51 402.799L1833.27 394.001ZM1812.16 376.294C1807.58 369.885 1805.09 361.382 1805.09 350.4H1795.09C1795.09 362.884 1797.93 373.582 1804.02 382.106L1812.16 376.294ZM1805.09 350.4C1805.09 333.879 1811.63 321.458 1824.88 312.549L1819.3 304.251C1803.21 315.076 1795.09 330.654 1795.09 350.4H1805.09ZM1824.84 312.572C1838.72 303.401 1857.14 298.6 1880.49 298.6V288.6C1855.83 288.6 1835.32 293.666 1819.33 304.228L1824.84 312.572ZM1880.49 298.6C1893.22 298.6 1904.96 299.899 1915.73 302.464L1918.05 292.736C1906.42 289.968 1893.89 288.6 1880.49 288.6V298.6ZM1915.86 302.494C1926.99 304.823 1937.3 308.178 1946.8 312.543L1950.97 303.457C1940.74 298.755 1929.72 295.177 1917.91 292.706L1915.86 302.494ZM1944.29 306.03L1932.29 334.03L1941.48 337.97L1953.48 309.97L1944.29 306.03ZM1938.96 331.448C1932.84 328.668 1926.33 326.316 1919.44 324.385L1916.74 334.015C1923.18 335.817 1929.2 337.999 1934.82 340.552L1938.96 331.448ZM1919.67 324.457C1913.01 322.237 1906.21 320.572 1899.28 319.463L1897.7 329.337C1904.1 330.361 1910.36 331.896 1916.51 333.943L1919.67 324.457ZM1899.47 319.497C1892.47 318.098 1885.34 317.4 1878.09 317.4V327.4C1884.7 327.4 1891.17 328.035 1897.51 329.303L1899.47 319.497ZM1878.09 317.4C1863.25 317.4 1851.11 319.852 1842.25 325.352L1847.52 333.848C1854.13 329.748 1864.12 327.4 1878.09 327.4V317.4ZM1842.29 325.326C1833.5 330.666 1828.69 338.468 1828.69 348.4H1838.69C1838.69 342.332 1841.34 337.601 1847.48 333.874L1842.29 325.326ZM1828.69 348.4C1828.69 355.332 1830.77 361.533 1835.01 366.753L1842.77 360.447C1840.08 357.134 1838.69 353.201 1838.69 348.4H1828.69ZM1835.11 366.875C1839.2 371.6 1845.61 375.953 1853.85 380.072L1858.32 371.128C1850.56 367.247 1845.5 363.6 1842.67 360.325L1835.11 366.875ZM1854.03 380.157C1862.4 383.939 1873.42 388.507 1887.06 393.855L1890.71 384.545C1877.15 379.226 1866.3 374.728 1858.15 371.043L1854.03 380.157ZM1887.14 393.885C1900.58 398.891 1911.94 403.991 1921.26 409.171L1926.12 400.429C1916.24 394.942 1904.4 389.643 1890.63 384.515L1887.14 393.885ZM1921.26 409.171C1930.28 414.184 1936.96 420.201 1941.51 427.14L1949.87 421.66C1944.28 413.133 1936.29 406.082 1926.12 400.429L1921.26 409.171ZM1941.55 427.208C1945.92 433.647 1948.29 442.064 1948.29 452.8H1958.29C1958.29 440.603 1955.59 430.086 1949.82 421.592L1941.55 427.208Z" fill="white"/>
<path d="M613.672 608.592C617.944 608.592 621.52 609 624.4 609.816C627.328 610.632 629.512 611.976 630.952 613.848C632.44 615.72 633.184 618.216 633.184 621.336C633.184 623.352 632.8 625.152 632.032 626.736C631.312 628.272 630.208 629.568 628.72 630.624C627.28 631.632 625.504 632.328 623.392 632.712V633.072C625.552 633.408 627.496 634.032 629.224 634.944C631 635.856 632.392 637.152 633.4 638.832C634.408 640.512 634.912 642.696 634.912 645.384C634.912 648.504 634.192 651.168 632.752 653.376C631.312 655.536 629.248 657.192 626.56 658.344C623.92 659.448 620.752 660 617.056 660H598.984V608.592H613.672ZM614.968 630.48C619.384 630.48 622.408 629.784 624.04 628.392C625.672 626.952 626.488 624.84 626.488 622.056C626.488 619.224 625.48 617.208 623.464 616.008C621.496 614.76 618.328 614.136 613.96 614.136H605.464V630.48H614.968ZM605.464 635.88V654.528H615.832C620.392 654.528 623.56 653.64 625.336 651.864C627.112 650.088 628 647.76 628 644.88C628 643.056 627.592 641.472 626.776 640.128C626.008 638.784 624.688 637.752 622.816 637.032C620.992 636.264 618.496 635.88 615.328 635.88H605.464ZM662.948 620.688C663.668 620.688 664.436 620.736 665.252 620.832C666.116 620.88 666.86 620.976 667.484 621.12L666.692 626.952C666.068 626.808 665.372 626.688 664.604 626.592C663.884 626.496 663.188 626.448 662.516 626.448C661.028 626.448 659.612 626.76 658.268 627.384C656.924 628.008 655.724 628.896 654.668 630.048C653.612 631.152 652.772 632.496 652.148 634.08C651.572 635.664 651.284 637.44 651.284 639.408V660H644.948V621.408H650.132L650.852 628.464H651.14C651.956 627.024 652.94 625.728 654.092 624.576C655.244 623.376 656.564 622.44 658.052 621.768C659.54 621.048 661.172 620.688 662.948 620.688ZM681.026 621.408V660H674.69V621.408H681.026ZM677.93 606.936C678.89 606.936 679.73 607.272 680.45 607.944C681.218 608.568 681.602 609.576 681.602 610.968C681.602 612.312 681.218 613.32 680.45 613.992C679.73 614.664 678.89 615 677.93 615C676.874 615 675.986 614.664 675.266 613.992C674.546 613.32 674.186 612.312 674.186 610.968C674.186 609.576 674.546 608.568 675.266 607.944C675.986 607.272 676.874 606.936 677.93 606.936ZM706.933 660.72C702.133 660.72 698.293 659.064 695.413 655.752C692.533 652.392 691.093 647.4 691.093 640.776C691.093 634.152 692.533 629.16 695.413 625.8C698.341 622.392 702.205 620.688 707.005 620.688C709.021 620.688 710.773 620.952 712.261 621.48C713.749 621.96 715.045 622.632 716.149 623.496C717.253 624.36 718.189 625.32 718.957 626.376H719.389C719.341 625.752 719.245 624.84 719.101 623.64C719.005 622.392 718.957 621.408 718.957 620.688V605.28H725.293V660H720.181L719.245 654.816H718.957C718.189 655.92 717.253 656.928 716.149 657.84C715.045 658.704 713.725 659.4 712.189 659.928C710.701 660.456 708.949 660.72 706.933 660.72ZM707.941 655.464C712.021 655.464 714.877 654.36 716.509 652.152C718.189 649.896 719.029 646.512 719.029 642V640.848C719.029 636.048 718.237 632.376 716.653 629.832C715.069 627.24 712.141 625.944 707.869 625.944C704.461 625.944 701.893 627.312 700.165 630.048C698.485 632.736 697.645 636.36 697.645 640.92C697.645 645.528 698.485 649.104 700.165 651.648C701.893 654.192 704.485 655.464 707.941 655.464ZM751.23 620.688C753.774 620.688 756.054 621.168 758.07 622.128C760.134 623.088 761.886 624.552 763.326 626.52H763.686L764.55 621.408H769.59V660.648C769.59 664.296 768.966 667.344 767.718 669.792C766.47 672.288 764.574 674.16 762.03 675.408C759.486 676.656 756.246 677.28 752.31 677.28C749.526 677.28 746.958 677.064 744.606 676.632C742.302 676.248 740.238 675.648 738.414 674.832V669C739.662 669.624 741.03 670.152 742.518 670.584C744.006 671.064 745.614 671.424 747.342 671.664C749.07 671.904 750.846 672.024 752.67 672.024C755.982 672.024 758.574 671.04 760.446 669.072C762.366 667.152 763.326 664.512 763.326 661.152V659.64C763.326 659.064 763.35 658.248 763.398 657.192C763.446 656.088 763.494 655.32 763.542 654.888H763.254C761.91 656.856 760.23 658.32 758.214 659.28C756.246 660.24 753.942 660.72 751.302 660.72C746.31 660.72 742.398 658.968 739.566 655.464C736.782 651.96 735.39 647.064 735.39 640.776C735.39 636.648 736.014 633.096 737.262 630.12C738.558 627.096 740.382 624.768 742.734 623.136C745.086 621.504 747.918 620.688 751.23 620.688ZM752.094 626.016C749.934 626.016 748.086 626.592 746.55 627.744C745.062 628.896 743.91 630.576 743.094 632.784C742.326 634.992 741.942 637.68 741.942 640.848C741.942 645.6 742.806 649.248 744.534 651.792C746.31 654.288 748.878 655.536 752.238 655.536C754.206 655.536 755.886 655.296 757.278 654.816C758.67 654.288 759.822 653.496 760.734 652.44C761.646 651.336 762.318 649.944 762.75 648.264C763.182 646.584 763.398 644.592 763.398 642.288V640.776C763.398 637.272 762.99 634.44 762.174 632.28C761.406 630.12 760.182 628.536 758.502 627.528C756.822 626.52 754.686 626.016 752.094 626.016ZM788.183 621.408V660H781.847V621.408H788.183ZM785.087 606.936C786.047 606.936 786.887 607.272 787.607 607.944C788.375 608.568 788.759 609.576 788.759 610.968C788.759 612.312 788.375 613.32 787.607 613.992C786.887 614.664 786.047 615 785.087 615C784.031 615 783.143 614.664 782.423 613.992C781.703 613.32 781.343 612.312 781.343 610.968C781.343 609.576 781.703 608.568 782.423 607.944C783.143 607.272 784.031 606.936 785.087 606.936ZM818.985 620.688C823.593 620.688 827.073 621.816 829.425 624.072C831.777 626.28 832.953 629.88 832.953 634.872V660H826.689V635.304C826.689 632.184 825.993 629.856 824.601 628.32C823.209 626.784 821.025 626.016 818.049 626.016C813.777 626.016 810.825 627.216 809.193 629.616C807.561 632.016 806.745 635.472 806.745 639.984V660H800.409V621.408H805.521L806.457 626.664H806.817C807.681 625.32 808.737 624.216 809.985 623.352C811.281 622.44 812.697 621.768 814.233 621.336C815.769 620.904 817.353 620.688 818.985 620.688ZM858.597 620.688C861.141 620.688 863.421 621.168 865.437 622.128C867.501 623.088 869.253 624.552 870.693 626.52H871.053L871.917 621.408H876.957V660.648C876.957 664.296 876.333 667.344 875.085 669.792C873.837 672.288 871.941 674.16 869.397 675.408C866.853 676.656 863.613 677.28 859.677 677.28C856.893 677.28 854.325 677.064 851.973 676.632C849.669 676.248 847.605 675.648 845.781 674.832V669C847.029 669.624 848.397 670.152 849.885 670.584C851.373 671.064 852.981 671.424 854.709 671.664C856.437 671.904 858.213 672.024 860.037 672.024C863.349 672.024 865.941 671.04 867.813 669.072C869.733 667.152 870.693 664.512 870.693 661.152V659.64C870.693 659.064 870.717 658.248 870.765 657.192C870.813 656.088 870.861 655.32 870.909 654.888H870.621C869.277 656.856 867.597 658.32 865.581 659.28C863.613 660.24 861.309 660.72 858.669 660.72C853.677 660.72 849.765 658.968 846.933 655.464C844.149 651.96 842.757 647.064 842.757 640.776C842.757 636.648 843.381 633.096 844.629 630.12C845.925 627.096 847.749 624.768 850.101 623.136C852.453 621.504 855.285 620.688 858.597 620.688ZM859.461 626.016C857.301 626.016 855.453 626.592 853.917 627.744C852.429 628.896 851.277 630.576 850.461 632.784C849.693 634.992 849.309 637.68 849.309 640.848C849.309 645.6 850.173 649.248 851.901 651.792C853.677 654.288 856.245 655.536 859.605 655.536C861.573 655.536 863.253 655.296 864.645 654.816C866.037 654.288 867.189 653.496 868.101 652.44C869.013 651.336 869.685 649.944 870.117 648.264C870.549 646.584 870.765 644.592 870.765 642.288V640.776C870.765 637.272 870.357 634.44 869.541 632.28C868.773 630.12 867.549 628.536 865.869 627.528C864.189 626.52 862.053 626.016 859.461 626.016ZM930.758 660L913.838 614.928H913.55C913.646 615.888 913.718 617.112 913.766 618.6C913.862 620.088 913.934 621.72 913.982 623.496C914.03 625.224 914.054 627 914.054 628.824V660H908.078V608.592H917.654L933.494 650.712H933.782L949.91 608.592H959.414V660H953.006V628.392C953.006 626.712 953.03 625.056 953.078 623.424C953.126 621.744 953.198 620.184 953.294 618.744C953.39 617.256 953.462 616.008 953.51 615H953.222L936.086 660H930.758ZM987.438 620.688C990.75 620.688 993.582 621.408 995.934 622.848C998.334 624.288 1000.16 626.328 1001.41 628.968C1002.7 631.56 1003.35 634.608 1003.35 638.112V641.928H976.926C977.022 646.296 978.126 649.632 980.238 651.936C982.398 654.192 985.398 655.32 989.238 655.32C991.686 655.32 993.846 655.104 995.718 654.672C997.638 654.192 999.606 653.52 1001.62 652.656V658.2C999.654 659.064 997.71 659.688 995.79 660.072C993.87 660.504 991.59 660.72 988.95 660.72C985.302 660.72 982.062 659.976 979.23 658.488C976.446 657 974.262 654.792 972.678 651.864C971.142 648.888 970.374 645.264 970.374 640.992C970.374 636.768 971.07 633.144 972.462 630.12C973.902 627.096 975.894 624.768 978.438 623.136C981.03 621.504 984.03 620.688 987.438 620.688ZM987.366 625.872C984.342 625.872 981.942 626.856 980.166 628.824C978.438 630.744 977.406 633.432 977.07 636.888H996.726C996.726 634.68 996.39 632.76 995.718 631.128C995.046 629.496 994.014 628.224 992.622 627.312C991.278 626.352 989.526 625.872 987.366 625.872ZM1026.85 660.72C1022.05 660.72 1018.21 659.064 1015.33 655.752C1012.45 652.392 1011.01 647.4 1011.01 640.776C1011.01 634.152 1012.45 629.16 1015.33 625.8C1018.26 622.392 1022.13 620.688 1026.93 620.688C1028.94 620.688 1030.69 620.952 1032.18 621.48C1033.67 621.96 1034.97 622.632 1036.07 623.496C1037.17 624.36 1038.11 625.32 1038.88 626.376H1039.31C1039.26 625.752 1039.17 624.84 1039.02 623.64C1038.93 622.392 1038.88 621.408 1038.88 620.688V605.28H1045.21V660H1040.1L1039.17 654.816H1038.88C1038.11 655.92 1037.17 656.928 1036.07 657.84C1034.97 658.704 1033.65 659.4 1032.11 659.928C1030.62 660.456 1028.87 660.72 1026.85 660.72ZM1027.86 655.464C1031.94 655.464 1034.8 654.36 1036.43 652.152C1038.11 649.896 1038.95 646.512 1038.95 642V640.848C1038.95 636.048 1038.16 632.376 1036.57 629.832C1034.99 627.24 1032.06 625.944 1027.79 625.944C1024.38 625.944 1021.81 627.312 1020.09 630.048C1018.41 632.736 1017.57 636.36 1017.57 640.92C1017.57 645.528 1018.41 649.104 1020.09 651.648C1021.81 654.192 1024.41 655.464 1027.86 655.464ZM1063.81 621.408V660H1057.47V621.408H1063.81ZM1060.71 606.936C1061.67 606.936 1062.51 607.272 1063.23 607.944C1064 608.568 1064.38 609.576 1064.38 610.968C1064.38 612.312 1064 613.32 1063.23 613.992C1062.51 614.664 1061.67 615 1060.71 615C1059.66 615 1058.77 614.664 1058.05 613.992C1057.33 613.32 1056.97 612.312 1056.97 610.968C1056.97 609.576 1057.33 608.568 1058.05 607.944C1058.77 607.272 1059.66 606.936 1060.71 606.936ZM1091.51 660.72C1088.11 660.72 1085.06 660.024 1082.37 658.632C1079.73 657.24 1077.64 655.08 1076.11 652.152C1074.62 649.224 1073.87 645.48 1073.87 640.92C1073.87 636.168 1074.67 632.304 1076.25 629.328C1077.83 626.352 1079.97 624.168 1082.66 622.776C1085.39 621.384 1088.49 620.688 1091.95 620.688C1093.91 620.688 1095.81 620.904 1097.63 621.336C1099.46 621.72 1100.95 622.2 1102.1 622.776L1100.15 628.032C1099 627.6 1097.66 627.192 1096.12 626.808C1094.59 626.424 1093.15 626.232 1091.8 626.232C1089.21 626.232 1087.07 626.784 1085.39 627.888C1083.71 628.992 1082.47 630.624 1081.65 632.784C1080.83 634.944 1080.43 637.632 1080.43 640.848C1080.43 643.92 1080.83 646.536 1081.65 648.696C1082.47 650.856 1083.69 652.488 1085.32 653.592C1086.95 654.696 1088.99 655.248 1091.44 655.248C1093.55 655.248 1095.4 655.032 1096.99 654.6C1098.62 654.168 1100.11 653.64 1101.45 653.016V658.632C1100.15 659.304 1098.71 659.808 1097.13 660.144C1095.59 660.528 1093.72 660.72 1091.51 660.72ZM1125.24 620.76C1129.95 620.76 1133.43 621.792 1135.68 623.856C1137.94 625.92 1139.07 629.208 1139.07 633.72V660H1134.46L1133.24 654.528H1132.95C1131.84 655.92 1130.69 657.096 1129.49 658.056C1128.34 658.968 1127 659.64 1125.46 660.072C1123.97 660.504 1122.15 660.72 1119.99 660.72C1117.68 660.72 1115.6 660.312 1113.72 659.496C1111.9 658.68 1110.46 657.432 1109.4 655.752C1108.35 654.024 1107.82 651.864 1107.82 649.272C1107.82 645.432 1109.33 642.48 1112.36 640.416C1115.38 638.304 1120.04 637.152 1126.32 636.96L1132.88 636.744V634.44C1132.88 631.224 1132.18 628.992 1130.79 627.744C1129.4 626.496 1127.43 625.872 1124.88 625.872C1122.87 625.872 1120.95 626.184 1119.12 626.808C1117.3 627.384 1115.6 628.056 1114.01 628.824L1112.07 624.072C1113.75 623.16 1115.74 622.392 1118.04 621.768C1120.35 621.096 1122.75 620.76 1125.24 620.76ZM1127.12 641.352C1122.32 641.544 1118.98 642.312 1117.11 643.656C1115.28 645 1114.37 646.896 1114.37 649.344C1114.37 651.504 1115.02 653.088 1116.32 654.096C1117.66 655.104 1119.36 655.608 1121.43 655.608C1124.69 655.608 1127.4 654.72 1129.56 652.944C1131.72 651.12 1132.8 648.336 1132.8 644.592V641.136L1127.12 641.352ZM1157.32 660H1150.99V605.28H1157.32V660ZM1220.67 660L1214.48 644.088H1194.1L1187.98 660H1181.43L1201.52 608.376H1207.35L1227.37 660H1220.67ZM1206.77 622.776C1206.63 622.392 1206.39 621.696 1206.05 620.688C1205.72 619.68 1205.38 618.648 1205.05 617.592C1204.76 616.488 1204.52 615.648 1204.33 615.072C1204.09 616.032 1203.82 617.016 1203.53 618.024C1203.29 618.984 1203.03 619.872 1202.74 620.688C1202.5 621.504 1202.29 622.2 1202.09 622.776L1196.26 638.328H1212.53L1206.77 622.776ZM1251.32 626.304H1241.6V660H1235.26V626.304H1228.49V623.352L1235.26 621.192V618.96C1235.26 615.648 1235.74 612.96 1236.7 610.896C1237.71 608.832 1239.15 607.32 1241.02 606.36C1242.89 605.4 1245.15 604.92 1247.79 604.92C1249.33 604.92 1250.72 605.064 1251.97 605.352C1253.26 605.592 1254.37 605.88 1255.28 606.216L1253.62 611.184C1252.85 610.944 1251.97 610.704 1250.96 610.464C1249.95 610.224 1248.92 610.104 1247.86 610.104C1245.75 610.104 1244.17 610.824 1243.11 612.264C1242.1 613.656 1241.6 615.864 1241.6 618.888V621.408H1251.32V626.304ZM1276.09 626.304H1266.37V660H1260.03V626.304H1253.26V623.352L1260.03 621.192V618.96C1260.03 615.648 1260.51 612.96 1261.47 610.896C1262.48 608.832 1263.92 607.32 1265.79 606.36C1267.66 605.4 1269.92 604.92 1272.56 604.92C1274.09 604.92 1275.49 605.064 1276.73 605.352C1278.03 605.592 1279.13 605.88 1280.05 606.216L1278.39 611.184C1277.62 610.944 1276.73 610.704 1275.73 610.464C1274.72 610.224 1273.69 610.104 1272.63 610.104C1270.52 610.104 1268.93 610.824 1267.88 612.264C1266.87 613.656 1266.37 615.864 1266.37 618.888V621.408H1276.09V626.304ZM1297.72 620.76C1302.42 620.76 1305.9 621.792 1308.16 623.856C1310.42 625.92 1311.54 629.208 1311.54 633.72V660H1306.94L1305.71 654.528H1305.42C1304.32 655.92 1303.17 657.096 1301.97 658.056C1300.82 658.968 1299.47 659.64 1297.94 660.072C1296.45 660.504 1294.62 660.72 1292.46 660.72C1290.16 660.72 1288.07 660.312 1286.2 659.496C1284.38 658.68 1282.94 657.432 1281.88 655.752C1280.82 654.024 1280.3 651.864 1280.3 649.272C1280.3 645.432 1281.81 642.48 1284.83 640.416C1287.86 638.304 1292.51 637.152 1298.8 636.96L1305.35 636.744V634.44C1305.35 631.224 1304.66 628.992 1303.26 627.744C1301.87 626.496 1299.9 625.872 1297.36 625.872C1295.34 625.872 1293.42 626.184 1291.6 626.808C1289.78 627.384 1288.07 628.056 1286.49 628.824L1284.54 624.072C1286.22 623.16 1288.22 622.392 1290.52 621.768C1292.82 621.096 1295.22 620.76 1297.72 620.76ZM1299.59 641.352C1294.79 641.544 1291.46 642.312 1289.58 643.656C1287.76 645 1286.85 646.896 1286.85 649.344C1286.85 651.504 1287.5 653.088 1288.79 654.096C1290.14 655.104 1291.84 655.608 1293.9 655.608C1297.17 655.608 1299.88 654.72 1302.04 652.944C1304.2 651.12 1305.28 648.336 1305.28 644.592V641.136L1299.59 641.352ZM1329.8 621.408V660H1323.46V621.408H1329.8ZM1326.7 606.936C1327.66 606.936 1328.5 607.272 1329.22 607.944C1329.99 608.568 1330.38 609.576 1330.38 610.968C1330.38 612.312 1329.99 613.32 1329.22 613.992C1328.5 614.664 1327.66 615 1326.7 615C1325.65 615 1324.76 614.664 1324.04 613.992C1323.32 613.32 1322.96 612.312 1322.96 610.968C1322.96 609.576 1323.32 608.568 1324.04 607.944C1324.76 607.272 1325.65 606.936 1326.7 606.936ZM1360.03 620.688C1360.75 620.688 1361.51 620.736 1362.33 620.832C1363.19 620.88 1363.94 620.976 1364.56 621.12L1363.77 626.952C1363.15 626.808 1362.45 626.688 1361.68 626.592C1360.96 626.496 1360.27 626.448 1359.59 626.448C1358.11 626.448 1356.69 626.76 1355.35 627.384C1354 628.008 1352.8 628.896 1351.75 630.048C1350.69 631.152 1349.85 632.496 1349.23 634.08C1348.65 635.664 1348.36 637.44 1348.36 639.408V660H1342.03V621.408H1347.21L1347.93 628.464H1348.22C1349.03 627.024 1350.02 625.728 1351.17 624.576C1352.32 623.376 1353.64 622.44 1355.13 621.768C1356.62 621.048 1358.25 620.688 1360.03 620.688ZM1396.9 649.344C1396.9 651.84 1396.27 653.928 1395.02 655.608C1393.78 657.288 1392 658.56 1389.7 659.424C1387.39 660.288 1384.66 660.72 1381.49 660.72C1378.8 660.72 1376.47 660.504 1374.5 660.072C1372.58 659.64 1370.88 659.04 1369.39 658.272V652.512C1370.93 653.28 1372.78 654 1374.94 654.672C1377.14 655.296 1379.38 655.608 1381.63 655.608C1384.85 655.608 1387.18 655.104 1388.62 654.096C1390.06 653.04 1390.78 651.648 1390.78 649.92C1390.78 648.96 1390.51 648.096 1389.98 647.328C1389.46 646.56 1388.5 645.792 1387.1 645.024C1385.76 644.256 1383.82 643.392 1381.27 642.432C1378.78 641.472 1376.64 640.512 1374.86 639.552C1373.09 638.592 1371.72 637.44 1370.76 636.096C1369.8 634.752 1369.32 633.024 1369.32 630.912C1369.32 627.648 1370.64 625.128 1373.28 623.352C1375.97 621.576 1379.47 620.688 1383.79 620.688C1386.14 620.688 1388.33 620.928 1390.34 621.408C1392.41 621.84 1394.33 622.464 1396.1 623.28L1393.94 628.32C1392.89 627.84 1391.76 627.432 1390.56 627.096C1389.41 626.712 1388.23 626.424 1387.03 626.232C1385.83 625.992 1384.61 625.872 1383.36 625.872C1380.77 625.872 1378.78 626.304 1377.38 627.168C1376.04 627.984 1375.37 629.112 1375.37 630.552C1375.37 631.608 1375.68 632.52 1376.3 633.288C1376.93 634.008 1377.96 634.728 1379.4 635.448C1380.89 636.12 1382.86 636.936 1385.3 637.896C1387.75 638.808 1389.84 639.744 1391.57 640.704C1393.3 641.664 1394.62 642.84 1395.53 644.232C1396.44 645.576 1396.9 647.28 1396.9 649.344ZM1449.13 638.184C1448.85 637.176 1448.56 636.192 1448.27 635.232C1447.98 634.224 1447.72 633.288 1447.48 632.424C1447.29 631.512 1447.09 630.672 1446.9 629.904C1446.71 629.136 1446.57 628.488 1446.47 627.96H1446.18C1446.09 628.488 1445.94 629.136 1445.75 629.904C1445.61 630.672 1445.41 631.512 1445.17 632.424C1444.98 633.336 1444.74 634.296 1444.45 635.304C1444.21 636.264 1443.93 637.248 1443.59 638.256L1436.68 659.928H1429.48L1418.89 621.336H1425.45L1430.77 641.928C1431.16 643.32 1431.52 644.736 1431.85 646.176C1432.19 647.568 1432.48 648.912 1432.72 650.208C1433.01 651.456 1433.2 652.536 1433.29 653.448H1433.58C1433.73 652.872 1433.89 652.152 1434.09 651.288C1434.28 650.424 1434.47 649.512 1434.66 648.552C1434.9 647.592 1435.14 646.632 1435.38 645.672C1435.67 644.712 1435.93 643.848 1436.17 643.08L1443.01 621.336H1449.93L1456.55 643.08C1456.89 644.184 1457.22 645.36 1457.56 646.608C1457.94 647.856 1458.28 649.08 1458.57 650.28C1458.85 651.432 1459.05 652.464 1459.14 653.376H1459.43C1459.53 652.56 1459.69 651.552 1459.93 650.352C1460.22 649.104 1460.53 647.76 1460.87 646.32C1461.25 644.832 1461.64 643.368 1462.02 641.928L1467.42 621.336H1473.9L1463.17 659.928H1455.76L1449.13 638.184ZM1487.16 621.408V660H1480.82V621.408H1487.16ZM1484.06 606.936C1485.02 606.936 1485.86 607.272 1486.58 607.944C1487.35 608.568 1487.74 609.576 1487.74 610.968C1487.74 612.312 1487.35 613.32 1486.58 613.992C1485.86 614.664 1485.02 615 1484.06 615C1483.01 615 1482.12 614.664 1481.4 613.992C1480.68 613.32 1480.32 612.312 1480.32 610.968C1480.32 609.576 1480.68 608.568 1481.4 607.944C1482.12 607.272 1483.01 606.936 1484.06 606.936ZM1512.27 655.536C1513.23 655.536 1514.22 655.464 1515.23 655.32C1516.23 655.128 1517.05 654.936 1517.67 654.744V659.568C1517 659.904 1516.04 660.168 1514.79 660.36C1513.55 660.6 1512.35 660.72 1511.19 660.72C1509.18 660.72 1507.31 660.384 1505.58 659.712C1503.9 658.992 1502.53 657.768 1501.47 656.04C1500.42 654.312 1499.89 651.888 1499.89 648.768V626.304H1494.42V623.28L1499.96 620.76L1502.48 612.552H1506.23V621.408H1517.39V626.304H1506.23V648.624C1506.23 650.976 1506.78 652.728 1507.88 653.88C1509.03 654.984 1510.5 655.536 1512.27 655.536ZM1531.74 621.336C1531.74 622.248 1531.69 623.184 1531.59 624.144C1531.55 625.104 1531.47 625.968 1531.38 626.736H1531.81C1532.63 625.392 1533.66 624.288 1534.91 623.424C1536.15 622.56 1537.55 621.912 1539.08 621.48C1540.62 621 1542.2 620.76 1543.83 620.76C1546.95 620.76 1549.55 621.264 1551.61 622.272C1553.72 623.232 1555.31 624.744 1556.36 626.808C1557.42 628.872 1557.95 631.56 1557.95 634.872V660H1551.68V635.304C1551.68 632.184 1550.99 629.856 1549.59 628.32C1548.2 626.784 1546.02 626.016 1543.04 626.016C1540.16 626.016 1537.91 626.568 1536.27 627.672C1534.64 628.728 1533.47 630.312 1532.75 632.424C1532.07 634.488 1531.74 637.032 1531.74 640.056V660H1525.4V605.28H1531.74V621.336ZM1621.03 660L1614.84 644.088H1594.46L1588.34 660H1581.79L1601.88 608.376H1607.71L1627.73 660H1621.03ZM1607.13 622.776C1606.99 622.392 1606.75 621.696 1606.41 620.688C1606.08 619.68 1605.74 618.648 1605.41 617.592C1605.12 616.488 1604.88 615.648 1604.69 615.072C1604.45 616.032 1604.18 617.016 1603.89 618.024C1603.65 618.984 1603.39 619.872 1603.1 620.688C1602.86 621.504 1602.65 622.2 1602.45 622.776L1596.62 638.328H1612.89L1607.13 622.776ZM1649.23 660H1630.65V656.256L1636.7 654.888V613.776L1630.65 612.336V608.592H1649.23V612.336L1643.18 613.776V654.888L1649.23 656.256V660Z" fill="#A8B4D0"/>
<path d="M2149.64 320.072L2267.97 379.798" stroke="white" stroke-width="5"/>
<path d="M2197.26 501.527L2319.59 516.857" stroke="white" stroke-width="5"/>
<path d="M2188 500.499L2235 464.001" stroke="white" stroke-width="5"/>
<path d="M2181.63 495.631L2131.99 428" stroke="white" stroke-width="5"/>
<path d="M2145.2 320.375L2236.99 292.001" stroke="white" stroke-width="5"/>
<path d="M2248.31 294.658L2332.51 340.93" stroke="white" stroke-width="5"/>
<path d="M2180.41 387.027L2280.69 395.557" stroke="white" stroke-width="5"/>
<path d="M2130 427.623L2190 392" stroke="white" stroke-width="5"/>
<path d="M2228.62 466.783L2285.57 383.807" stroke="white" stroke-width="5"/>
<path d="M2274 394.938L2350.54 336.876" stroke="white" stroke-width="5"/>
<path d="M2371 416L2341.15 330.118" stroke="white" stroke-width="5"/>
<path d="M2272.1 384.422L2366.24 403.638" stroke="white" stroke-width="5"/>
<path d="M2290.47 398.67L2321.41 489.625" stroke="white" stroke-width="5"/>
<path d="M2365.63 404.621L2335.56 513.458" stroke="white" stroke-width="5"/>
<path d="M2308.57 496.307L2145.35 428.476" stroke="white" stroke-width="5"/>
<path d="M2141.48 317.332L2139.99 416.055" stroke="white" stroke-width="5"/>
<circle cx="2320.14" cy="495.207" r="26.9913" transform="rotate(-128.864 2320.14 495.207)" fill="#266DD3"/>
<circle cx="2279.02" cy="387.52" r="26.8271" transform="rotate(-128.864 2279.02 387.52)" fill="#92FDF2"/>
<circle cx="2142.71" cy="428.71" r="23.263" transform="rotate(-128.864 2142.71 428.71)" fill="#DCFFFD"/>
<circle cx="2142.71" cy="428.71" r="23.263" transform="rotate(-128.864 2142.71 428.71)" stroke="white"/>
<circle cx="2241.7" cy="292.964" r="21.2195" transform="rotate(-128.864 2241.7 292.964)" fill="#5BC0F8"/>
<circle cx="2212.83" cy="350.833" r="14.8158" transform="rotate(-128.864 2212.83 350.833)" fill="#2FBEF0"/>
<circle cx="2140.23" cy="314.282" r="19.2223" transform="rotate(-128.864 2140.23 314.282)" fill="#EFEFEF"/>
<circle cx="2337.65" cy="340.382" r="19.2223" transform="rotate(-128.864 2337.65 340.382)" fill="#EFEFEF"/>
<circle cx="2367.9" cy="400.848" r="19.2223" transform="rotate(-128.864 2367.9 400.848)" fill="#1F487E"/>
<circle cx="2233.78" cy="460.783" r="16.2028" transform="rotate(-128.864 2233.78 460.783)" fill="#5BC8AF"/>
<circle cx="2190.36" cy="389.597" r="13.0685" transform="rotate(-128.864 2190.36 389.597)" fill="#86E5FF"/>
<circle cx="2189.94" cy="498.943" r="14.9952" transform="rotate(-54.0519 2189.94 498.943)" fill="#9AE5E6"/>
<defs>
<linearGradient id="paint0_linear_2361_11659" x1="2103.73" y1="-221.178" x2="554.454" y2="1819.85" gradientUnits="userSpaceOnUse">
<stop stop-color="#0749C5"/>
<stop offset="1" stop-color="#061A40"/>
</linearGradient>
<linearGradient id="paint1_linear_2361_11659" x1="2050.33" y1="140.693" x2="2526.79" y2="582.397" gradientUnits="userSpaceOnUse">
<stop stop-color="#0869FA"/>
<stop offset="1" stop-color="#A8FBE7"/>
</linearGradient>
</defs>
</svg>
